<?xml version="1.0" encoding="utf-8"?>
<!-- Generator: Adobe Illustrator 21.1.0, SVG Export Plug-In . SVG Version: 6.00 Build 0)  -->
<svg version="1.1" id="Layer_1" xmlns="http://www.w3.org/2000/svg" xmlns:xlink="http://www.w3.org/1999/xlink" x="0px" y="0px"
	 viewBox="0 0 158.8 73.6" style="enable-background:new 0 0 158.8 73.6;" xml:space="preserve">
<style type="text/css">
	.st0{fill:#316BB4;}
</style>
<g>
	<path class="st0" d="M63.9,38.5l2.8,3c0,0,1-1.8,3.6-1.8s4.2,0.7,4.2,3.2c0,1.9-3.3,5.8-8.2,9.2c-0.4,0.3-1.6,0.8-2.1,0.9
		c-0.1,0-0.2,0-0.3,0v4.3h14.7V53L71,52.9c0,0,4.4-2.6,6.7-7.6c2.1-4.7-0.7-7.8-2.1-8.7C74.7,36.1,68.9,33,63.9,38.5z"/>
	<circle class="st0" cx="93.3" cy="46.9" r="10.7"/>
	<polygon class="st0" points="107.4,41.4 110.4,44.3 113.3,41.4 113.3,57.2 117.9,57.2 117.9,35.5 113.4,35.3 	"/>
	<g>
		<path class="st0" d="M73.5,14.1l1.9,1.4L74.3,17c0.8,0.9,1.1,1.9,1.1,3c0,1.3-0.5,3.1-2.2,3.8c1.7,0.9,2.1,2.1,2.1,3.4
			c0,2.8-2.2,4.6-5.2,4.6s-5.2-1.8-5.2-4.6h2.5c0,1.3,1.2,2.2,2.7,2.2s2.6-0.8,2.6-2.2c0-1.4-1.3-2.1-2.6-2.1c-3.2,0-5.2-2-5.2-5.2
			s2.3-5.2,5.2-5.2c0.8,0,1.6,0.1,2.4,0.6L73.5,14.1z M67.5,20c0,1.8,1.2,2.9,2.7,2.9s2.7-1.1,2.7-2.9s-1.2-2.9-2.7-2.9
			S67.5,18.2,67.5,20z"/>
		<path class="st0" d="M79.3,15.1l0.2,1.2c0.8-1.3,1.9-1.5,2.9-1.5c1.1,0,2.1,0.4,2.6,1L83.9,18c-0.5-0.4-1-0.7-1.8-0.7
			c-1.3,0-2.6,0.7-2.6,2.6v5.4H77V15.1H79.3z"/>
		<path class="st0" d="M96.2,20.3c0,3-2,5.4-5.4,5.4c-3.3,0-5.3-2.4-5.3-5.4c0-2.9,2-5.4,5.3-5.4C94.1,14.9,96.2,17.3,96.2,20.3z
			 M88.1,20.3c0,1.6,0.9,3,2.8,3c1.9,0,2.8-1.5,2.8-3s-1.1-3-2.8-3C89.1,17.2,88.1,18.7,88.1,20.3z"/>
		<path class="st0" d="M100.6,15.1v5.4c0,1.6,0.9,2.8,2.5,2.8s2.6-1.3,2.6-2.9v-5.3h2.5v10.3h-2.3l-0.1-1.4c-1.1,1-2,1.5-3.5,1.5
			c-2.5,0-4.3-1.9-4.3-5v-5.4H100.6z"/>
		<path class="st0" d="M110.5,29.7V15.1h2.4l0.2,1.4c0.8-1.1,2.2-1.6,3.3-1.6c3.2,0,5.3,2.4,5.3,5.4s-1.9,5.4-5.2,5.4
			c-1.1,0-2.7-0.3-3.4-1.5v5.5C113.1,29.7,110.5,29.7,110.5,29.7z M119.1,20.3c0-1.6-1.1-2.9-2.9-2.9s-2.9,1.3-2.9,2.9
			s1.2,2.9,2.9,2.9C117.9,23.2,119.1,21.9,119.1,20.3z"/>
		<path class="st0" d="M138,20.3c0,3-2,5.4-5.4,5.4c-3.3,0-5.3-2.4-5.3-5.4c0-2.9,2-5.4,5.3-5.4S138,17.3,138,20.3z M129.8,20.3
			c0,1.6,0.9,3,2.8,3c1.9,0,2.8-1.5,2.8-3s-1.1-3-2.8-3C130.8,17.2,129.8,18.7,129.8,20.3z"/>
		<path class="st0" d="M140.6,25.4v-7.9h-1.9v-2.2h1.9v-0.7c0-2.8,1.9-4,3.9-4c0.9,0,1.8,0.3,2.7,0.8l-0.9,1.9
			c-0.5-0.4-1-0.5-1.6-0.5c-0.9,0-1.5,0.6-1.5,1.8v0.7h3v2.2h-3v7.9H140.6z"/>
	</g>
	<g>
		<path class="st0" d="M135.1,46.3c0.5,0,1.1,0,1.7,0.1l1.1-3.7c-2.4,0.6-4.1,0.3-4.9,0.1l1.1,3.5C134.5,46.3,134.8,46.3,135.1,46.3
			z M133.9,43.5c0.1-0.1,0.2-0.1,0.3-0.1c0,0,2.2,0,2.8,0c0.1,0,0.2,0,0.3,0.1c0.1,0.1,0.1,0.2,0,0.3l-0.7,1.9
			c0,0.1-0.2,0.2-0.3,0.2h-1.5c-0.1,0-0.3-0.1-0.3-0.2l-0.6-1.9C133.8,43.7,133.9,43.6,133.9,43.5z"/>
		<path class="st0" d="M126.2,41.7c0.3,0.7,0.5,0.9,0.6,1c3-2.8,5.9-3.7,8.5-3.7c-0.1-0.2-0.2-0.3-0.4-0.5c-0.6-0.6-0.5-2,0.7-2
			c1.3,0,1.4,1.5,0.8,2.1c-0.3,0.3-0.4,0.4-0.5,0.5c1.2,0.1,2.2,0.3,3.1,0.6c3.2,1.1,5.3,3.1,5.4,3.2l0,0c0.1-0.1,0.3-0.3,0.5-1
			s0.7-0.8,1-0.8c-2-3.7-5.8-6.2-10.3-6.2c-4.4,0-8.2,2.4-10.2,6C125.6,40.9,126,41.1,126.2,41.7z"/>
		<path class="st0" d="M139.4,44.2l-0.4,1.3c0.3,0.1,0.7,0.2,1,0.2l0.9-1.2C140.3,44.5,139.7,44.3,139.4,44.2z"/>
		<path class="st0" d="M139.1,40.4c1.6,1,2.8,2.3,2.8,2.4l0.1,0.1c0.4,0,0.9,0,1.3,0C142.6,42.2,141.1,41.1,139.1,40.4z"/>
		<path class="st0" d="M143.2,43.5c-0.3,0-0.5,0-0.8,0c-1.7,0-3.1-0.6-3.7-0.9l-1.2,3.7c0.9,0.1,1.8,0.3,2.8,0.5L143.2,43.5z
			 M140.1,46.4C140.1,46.4,140,46.4,140.1,46.4c-0.4-0.1-1.4-0.3-1.6-0.3c-0.1,0-0.2-0.1-0.2-0.1s-0.1-0.2,0-0.3l0.6-2
			c0.1-0.2,0.2-0.3,0.4-0.2c0,0,1.6,0.4,2.2,0.5c0.1,0,0.2,0.1,0.3,0.2c0,0.1,0,0.2,0,0.3l-1.4,1.8
			C140.3,46.4,140.2,46.4,140.1,46.4z"/>
		<path class="st0" d="M133.6,46.4l-1.2-3.7c-1.7,0.9-3.6,0.9-4.6,0.7l2.9,3.5C131.1,46.8,132.1,46.5,133.6,46.4z M129.4,44.2
			c0-0.1,0.1-0.2,0.3-0.2c0.6-0.1,2.2-0.5,2.2-0.5c0.2,0,0.3,0.1,0.4,0.2l0.6,2c0,0.1,0,0.2,0,0.3s-0.1,0.1-0.2,0.1
			c-0.2,0-1.2,0.2-1.5,0.3c0,0,0,0-0.1,0c-0.1,0-0.2,0-0.3-0.1l-1.4-1.8C129.4,44.4,129.3,44.3,129.4,44.2z"/>
		<path class="st0" d="M136,45.3l0.5-1.3c-0.6,0-1.4,0-1.9,0l0.4,1.3H136z"/>
		<path class="st0" d="M141.1,42.8c-0.7-0.7-2.1-1.9-3.6-2.5c0.5,0.5,1,1.1,1.3,1.7C139,42.2,139.9,42.6,141.1,42.8z"/>
		<path class="st0" d="M132.1,45.6l-0.4-1.3c-0.4,0.1-1,0.2-1.5,0.3l0.9,1.2C131.4,45.7,131.8,45.6,132.1,45.6z"/>
		<path class="st0" d="M135.5,39.7c-0.5,0.3-1.9,1.2-2.5,2.4c0.6,0.2,2.2,0.6,5-0.1C137.5,40.9,136,40,135.5,39.7z"/>
		<path class="st0" d="M129.2,42.9c0.2-0.5,1-1.7,2.7-2.7c-1.4,0.5-2.8,1.3-4.2,2.5C128,42.8,128.5,42.9,129.2,42.9z"/>
		<path class="st0" d="M139.7,48c3.3,0.7,5.7,2,6.7,2.6c0.5-1.3,0.7-2.6,0.7-4c0-1.6-0.3-3.1-0.9-4.5c-0.1,0.1-0.2,0.2-0.5,0.3
			c-0.8,0.2-1.6,1-1.6,1l0,0l-3.5,4.1c-0.1,0.1-0.2,0.1-0.2,0.1h-0.1c-6-1.5-9.6,0-9.7,0c-0.1,0.1-0.3,0-0.4-0.1l-3.6-4.3
			c-0.2-0.2-0.9-0.7-1.6-0.9c-0.2,0-0.3-0.1-0.4-0.2c-0.6,1.4-0.9,2.9-0.9,4.5c0,1.4,0.3,2.8,0.7,4C130.3,47,135.9,47.2,139.7,48z"
			/>
		<path class="st0" d="M129.9,42.8c0.8-0.1,1.6-0.3,2.4-0.8c0.3-0.8,0.9-1.5,1.5-2C131.5,40.8,130.4,42.1,129.9,42.8z"/>
		<path class="st0" d="M131.5,52.7c-2.1,0.5-3.7,1.3-4.5,1.8c2.1,2.3,5.1,3.7,8.5,3.7c3.3,0,6.3-1.4,8.4-3.6
			C138.7,51.9,134.3,52,131.5,52.7z"/>
		<path class="st0" d="M132.3,50.8c0.1,0.1,0.3,0.1,0.4,0.1c0.2,0,0.3-0.1,0.4-0.2c0.1-0.1,0.1-0.3,0.1-0.6c0-0.2-0.1-0.4-0.2-0.5
			c-0.1-0.1-0.2-0.1-0.3-0.1h-0.1c-0.2,0-0.3,0.1-0.4,0.2c-0.1,0.1-0.1,0.3-0.1,0.5C132.1,50.5,132.2,50.7,132.3,50.8z"/>
		<path class="st0" d="M136,49.8C136,49.8,136,49.7,136,49.8c0.1-0.1,0.1-0.1,0.1-0.2c0-0.1,0-0.1,0-0.1l-0.1-0.1c0,0-0.1,0-0.3,0
			h-0.3v0.4h0.3C135.9,49.8,135.9,49.8,136,49.8z"/>
		<polygon class="st0" points="141.6,50.6 141.2,51.1 141.6,51.2 		"/>
		<path class="st0" d="M135.1,51.6c2.6,0,5.8,0.6,9.3,2.4c0.7-0.9,1.3-1.8,1.8-2.9c-0.8-0.5-3.3-1.8-6.6-2.5
			c-3.7-0.8-9.2-1-14.7,2.5c0.4,1,1,2,1.7,2.8c0.8-0.5,2.4-1.4,4.7-2C132.4,51.8,133.7,51.6,135.1,51.6z M143.1,50.8l0.2-0.5L145,51
			l-0.2,0.5l-0.6-0.3l-0.7,1.8l-0.5-0.2l0.7-1.7L143.1,50.8z M141.6,49.8l0.5,0.2l0.1,2.5l-0.6-0.2v-0.5l-0.7-0.3l-0.3,0.4l-0.6-0.2
			L141.6,49.8z M138,49l1.8,0.2l-0.1,0.5l-1.2-0.2v0.4l1.1,0.1l-0.1,0.5l-1.1-0.1l-0.1,0.5l1.2,0.2l-0.1,0.5l-1.8-0.2L138,49z
			 M134.7,48.9h1c0.2,0,0.4,0,0.5,0.1c0.1,0,0.2,0.1,0.3,0.2c0.1,0.1,0.1,0.2,0.1,0.4s-0.1,0.3-0.2,0.5c-0.1,0.1-0.2,0.2-0.3,0.2
			l0.1,0.1c0.1,0.1,0.2,0.2,0.3,0.4l0.3,0.5h-0.7l-0.3-0.5c-0.1-0.2-0.2-0.3-0.2-0.3l-0.1-0.1c0,0-0.1,0-0.2,0l0,0v0.9h-0.6
			L134.7,48.9z M131.5,49.8c0-0.1,0.1-0.2,0.2-0.4c0.1-0.1,0.2-0.2,0.3-0.3s0.3-0.1,0.5-0.2c0.3-0.1,0.6,0,0.9,0.2
			c0.2,0.2,0.4,0.5,0.4,0.8c0.1,0.4,0,0.7-0.2,0.9s-0.4,0.4-0.8,0.4c-0.1,0-0.2,0-0.2,0c-0.2,0-0.5-0.1-0.6-0.2
			c-0.2-0.2-0.4-0.5-0.4-0.8C131.5,50.2,131.5,50,131.5,49.8z M127.8,52.8l-0.5,0.2l-1-2.1l1.5-0.7l0.2,0.5l-1,0.4l0.2,0.4l0.8-0.4
			l0.2,0.5l-0.8,0.4L127.8,52.8z M129.4,52.2l-0.7-2.2l0.6-0.2l0.5,1.7l1.1-0.3l0.1,0.5L129.4,52.2z"/>
	</g>
</g>
<image style="overflow:visible;" width="225" height="323" xlink:href="rcu.png"  transform="matrix(0.1844 0 0 0.1844 9.7057 7.6834)">
</image>
</svg>
